PathFileType	4	(X/Y/Z)	Patient4_TMGait_0pt8_01_left_27.trc.trc
DataRate	CameraRate	NumFrames	NumMarkers	Units	OrigDataRate	OrigDataStartFrame	OrigNumFrames
89.171974522293	89.171974522293	6	33	mm	89.171974522293	89	       141
Frame#	Time	Sacral			L.Shoulder			Chest			R.Shoulder			Neck			R.ASIS			L.ASIS			R.Thigh.Superior			R.Thigh.Lateral			R.Thigh.Inferior			R.Patella			L.Thigh.Superior			L.Thigh.Lateral			L.Thigh.Inferior			L.Patella			L.Shank.Superior			L.Shank.Lateral			L.Shank.Inferior			R.Shank.Superior			R.Shank.Lateral			R.Shank.Inferior			R.Heel			R.Midfoot.Superior			R.Midfoot.Lateral			R.Toe			L.Heel			L.Midfoot.Lateral			L.Midfoot.Superior			L.Toe			L.Elbow			L.Wrist			R.Elbow			R.Wrist			
		X1	Y1	Z1	X2	Y2	Z2	X3	Y3	Z3	X4	Y4	Z4	X5	Y5	Z5	X6	Y6	Z6	X7	Y7	Z7	X8	Y8	Z8	X9	Y9	Z9	X10	Y10	Z10	X11	Y11	Z11	X12	Y12	Z12	X13	Y13	Z13	X14	Y14	Z14	X15	Y15	Z15	X16	Y16	Z16	X17	Y17	Z17	X18	Y18	Z18	X19	Y19	Z19	X20	Y20	Z20	X21	Y21	Z21	X22	Y22	Z22	X23	Y23	Z23	X24	Y24	Z24	X25	Y25	Z25	X26	Y26	Z26	X27	Y27	Z27	X28	Y28	Z28	X29	Y29	Z29	X30	Y30	Z30	X31	Y31	Z31	X32	Y32	Z32	X33	Y33	Z33	

89	30.616857142857	897.608311927787	996.940554570410	489.758944082734	1104.079005472698	1420.559941026156	318.421748246979	1186.691620555370	1352.290350488335	492.028356349012	1083.394001043833	1431.501916533854	652.816445613567	1086.333329866718	1485.141275976448	469.988252655367	1112.635968963647	939.078976109321	632.963439176330	1125.871941123263	948.311093460925	356.763026694813	1181.560599716049	750.961611301347	614.939035150032	1107.605066420767	633.744714049678	664.661599323480	1200.125041942629	591.775360613644	594.489512635803	1213.299262441681	502.701308762686	601.959841710279	1164.239942201587	731.482185709552	382.640336215634	1085.683384625673	619.799922951278	301.398732187526	1168.180006042295	531.991379888441	363.366852998709	1157.433769581227	444.840290306491	355.143013611406	1081.279988681519	392.528418043299	342.695201709100	938.813694941147	372.594801421956	284.727237657713	903.238096834622	246.176975806131	334.645227077662	1191.534115879163	411.941079882094	604.838646751531	1124.468190850437	302.547522600228	660.410234793751	1177.980289076667	211.453252011985	600.660010910980	1055.517580010061	44.369319365466	562.828915806794	1225.321679505027	97.656519678897	603.711217176924	1136.362680382769	37.979372514650	640.597668376603	1344.978550664922	43.857509483799	636.154452870653	703.899386889185	216.092493637429	360.243712986107	755.632018874122	158.102517950150	284.236258942188	859.063736274720	145.758672068380	311.539947546343	915.556342271057	31.179976451863	289.849697643194	1119.379335677255	1069.958221065641	200.439786215935	1367.805930587196	1019.325782920737	247.359847579313	949.844287095994	1108.151095708632	757.042965117261	949.719574978580	848.113841029064	779.252903707809	
90	30.628071428571	896.716025140743	999.016734885798	493.028156720276	1103.820079944936	1421.603844588146	320.681384636856	1187.253177312134	1353.130677961158	493.827972163848	1085.234382094832	1432.757372899849	655.219270728139	1087.205323400488	1486.372505982708	472.300804911060	1111.835938624370	940.207426776196	635.387409075499	1125.010376316418	949.874108540851	359.165780497881	1177.844879756323	750.296326220230	618.400733487587	1101.852297022139	634.060874416483	666.879746049072	1194.199636941138	591.172364373406	597.062102059204	1205.993489804648	502.155063211538	604.085448309627	1168.062203936606	735.649702015598	385.601396346341	1093.635430000953	622.126370550225	303.823852973656	1178.611698108666	536.393740670457	366.058038690613	1169.639750676260	448.324377323304	357.870123960225	1092.620094211046	395.706880003388	345.197656992285	949.762619250083	379.064415356282	286.761237530023	911.522024262940	253.218471136407	336.338745203400	1183.947344802486	411.743097140566	606.666265159621	1116.122566898154	302.499534166699	661.569152856047	1169.558094046726	211.404493202577	601.679236157297	1046.553935003833	44.431057219949	563.020375722639	1216.429759207054	97.610721109450	604.084705443691	1127.379521231466	37.949479725667	640.773211901838	1336.016531150815	43.601859828775	636.416596659090	711.700218963626	229.126868387958	361.406680783298	761.827374240351	169.868994572151	285.112266437364	864.970591608113	153.288580533911	312.901726607468	916.878761597631	33.164123593249	290.063691283142	1114.299263076127	1069.600917806859	205.607686129505	1359.720982513096	1002.276039687722	250.384363920687	956.763119563468	1106.592980920455	760.339378430196	970.868166518598	846.617927706279	782.093024752121	
91	30.639285714286	895.661688306131	1001.016914001571	496.107604104687	1103.219168389326	1422.582949199230	322.859318407627	1187.602937911794	1353.877179074626	495.478278430894	1087.000532406891	1433.873594252075	657.591519166586	1087.902046517968	1487.547807431226	474.587521936076	1110.912907637530	941.240404112012	637.569684765729	1123.997175289598	951.509020247406	361.323104044490	1173.971312542460	749.686404502294	621.437771541669	1096.103470067862	634.436188835504	668.908743616215	1188.193824941318	590.601908888244	599.388504853683	1198.599931062067	501.680462728899	606.070542746264	1171.470205093781	740.105823306162	388.247032745636	1101.003462652126	624.946032897268	306.054972683679	1188.426703742184	541.375835126334	368.448424372155	1181.419007579705	452.472383268579	360.346251022492	1103.813420852317	399.356055563824	347.509817012885	960.709305476517	385.111778646887	288.741130683894	920.557865971113	259.714604641441	338.102439573084	1176.309548257576	411.594125396828	608.363407856539	1107.723190065436	302.518554252201	662.660619195364	1161.126747057713	211.400450262552	602.668930675462	1037.554867302194	44.543898208836	563.213262859617	1207.574084968627	97.569094586496	604.479404030188	1118.381759334678	37.920064143542	640.931050619387	1327.053847078774	43.270331687821	636.626871289689	720.494605219961	239.676808835430	362.877419656634	769.537724570255	179.881416591636	286.207678296793	872.378342890675	160.406414299615	314.318495604366	921.068200206088	36.045336905681	290.227456293485	1109.540633874641	1069.280475064803	210.677453201525	1350.524064702314	984.573952353267	252.948845804580	964.144693279564	1104.851304543794	763.689544568502	992.897718501334	845.774644808889	784.882446336374	
92	30.650500000000	894.453866864743	1002.936798683066	498.994383952355	1102.345176003570	1423.529072848075	324.959935779684	1187.746112227777	1354.550523058869	497.004646558401	1088.658576854482	1434.881505464081	659.917943292148	1088.441286657156	1488.683750523588	476.840566206060	1109.878390124891	942.221245576711	639.554124295271	1122.785547958396	953.174559347196	363.268858363974	1170.013070390059	749.173156898748	624.029345255781	1090.418718781192	634.883067173985	670.744053548671	1182.165812432177	590.078367836588	601.454909814816	1191.197548647287	501.287853650806	607.880881471632	1174.423515202821	744.810647796000	390.599127025818	1107.759432027918	628.218774131222	308.048385679353	1197.602365869189	546.884605678537	370.465520782799	1192.725965132077	457.248768584733	362.436666524563	1114.836647216893	403.421253892079	349.512634526247	971.569952105745	390.599797409351	290.624039713140	930.373671062171	265.452741396661	339.858572581965	1168.673798911878	411.502033639717	609.911361027235	1099.316386212433	302.622987982193	663.679355651931	1152.703363234298	211.449208159805	603.616115495546	1028.529327849942	44.708989045112	563.412109425145	1198.748618216826	97.552790455253	604.895010238944	1109.376489653518	37.900689457974	641.073661184614	1318.087248822660	42.907575749894	636.803204246587	730.230519006460	247.453439811184	364.615338577324	778.730721751163	187.785425201457	287.494915126248	881.350071115972	166.773944293364	315.727963057290	928.281631157770	39.605208619384	290.354090792427	1105.069408115296	1069.023418766832	215.616897605441	1340.036913518378	966.472798686674	255.046244180711	972.102558325813	1102.954936987123	767.094326797915	1015.744271340733	845.687410761070	787.579020187605	
93	30.661714285714	893.103517279791	1004.774277160824	501.695194594541	1101.268828324104	1424.467612926703	326.987812621565	1187.693293308045	1355.170339226766	498.432872889048	1090.176470254078	1435.810879960556	662.181708500884	1088.837205048227	1489.790426368072	479.048969491209	1108.745761726486	943.179909227530	641.377703535332	1121.334211466314	954.818469050330	365.037848549159	1166.022255077614	748.769925343111	626.178669247135	1084.830154037689	635.398684114158	672.382667481531	1176.152934671189	589.606371812778	603.255869799615	1183.841492036268	500.976126579921	609.485910434967	1176.907122718923	749.715253390946	392.677715489179	1113.899825961189	631.879112935178	309.768792308468	1206.135950910235	552.846577815658	372.061109732070	1203.530928443927	462.599602642879	364.054481746762	1125.683059848750	407.828137700988	351.129762876383	982.302915342366	395.399143301664	292.364090142946	940.997682987581	270.253178742759	341.537826230792	1161.073371921695	411.465428999419	611.294600246863	1090.932180442869	302.818771628717	664.615695751344	1144.295974123001	211.550772561023	604.505638023260	1019.486822717002	44.923108850539	563.615588444188	1189.946020113692	97.575792111756	605.327072264932	1100.369620225196	37.897175891220	641.200359425939	1309.113826597223	42.551106609141	636.960155605547	740.888590303526	252.312863213202	366.544696058042	789.376189199509	193.348509176627	288.922256248348	891.917265684555	172.092844572276	317.080088402256	938.542969142182	43.516946160496	290.463277868722	1100.815187825399	1068.862434847342	220.384026066103	1328.098020334545	948.275442977314	256.683815314480	980.714482638915	1100.961588051326	770.552662149680	1039.330521462251	846.458910688612	790.141838026377	
94	30.672928571429	891.624029274128	1006.528877904896	504.219644388037	1100.055567636237	1425.412297289275	328.946850749152	1187.459944041412	1355.750219337614	499.785935274199	1091.528297821447	1436.682646791922	664.367342006677	1089.100141619001	1490.868832594455	481.201324501477	1107.527082480500	944.127952211779	643.065731613801	1119.617101044445	956.385611004712	366.662003345616	1162.029888204144	748.468229325662	627.906241258280	1079.352215124050	635.969023086421	673.826265474536	1170.177372259826	589.183038602373	604.794758666673	1176.566337732094	500.734778900610	610.867345149054	1178.927236543065	754.761789800498	394.498678436516	1119.432831425147	635.836098975136	311.195205950242	1214.032930401349	559.168441047745	373.217498780291	1213.809726238500	468.450720933190	365.169064979202	1136.348371260577	412.487191549761	352.334849022004	992.899403477583	399.394657596727	293.917301519365	952.447024323873	273.980457370122	343.082343747674	1153.526816768627	411.474415773099	612.504315557155	1082.588616177716	303.100099701657	665.459033743025	1135.907007774387	211.697141628999	605.322767984296	1010.436277635422	45.179114076809	563.817911957771	1181.158209979983	97.642812937974	605.766222541476	1091.365521804090	37.911977496807	641.309067837489	1300.131640838087	42.227276485157	637.107365849690	752.475412098423	254.238542434600	368.559380882104	801.448491581515	196.457879657946	290.416566630464	904.077629955737	176.130011121986	318.336046153841	951.760087954235	47.408937949422	290.577667399384	1096.678433016711	1068.827612456791	224.927280738429	1314.580439345486	930.321380657005	257.879010327167	990.012859842780	1098.946998347755	774.058597556903	1063.558442401662	848.185113505793	792.531867531224	
